<svg version="1.1" xmlns="http://www.w3.org/2000/svg" style="display: block;" viewBox="0 0 2048 2048" width="1024" height="1024" preserveAspectRatio="none">
<path transform="translate(0,0)" fill="rgb(36,28,20)" d="M 994.254 255.649 C 1420.9 238.203 1780.92 569.902 1798.41 996.547 C 1815.9 1423.19 1484.24 1783.25 1057.6 1800.78 C 630.893 1818.32 270.772 1486.6 253.278 1059.89 C 235.783 633.184 567.543 273.098 994.254 255.649 z"/>
<path transform="translate(0,0)" fill="rgb(122,63,6)" d="M 998.171 305.116 C 1397.39 289.818 1733.49 600.924 1749.02 1000.14 C 1764.55 1399.35 1453.64 1735.62 1054.44 1751.39 C 654.903 1767.17 318.287 1455.94 302.744 1056.4 C 287.2 656.859 598.619 320.426 998.171 305.116 z"/>
<path transform="translate(0,0)" fill="rgb(36,28,20)" d="M 1011.18 384.568 C 1366.54 376.462 1661.19 657.981 1669.28 1013.35 C 1677.36 1368.71 1395.83 1663.35 1040.46 1671.42 C 685.123 1679.49 390.516 1397.98 382.428 1042.64 C 374.341 687.295 655.836 392.673 1011.18 384.568 z"/>
<path transform="translate(0,0)" fill="rgb(254,158,4)" d="M 996.116 434.553 C 1323.95 418.159 1603.01 670.641 1619.39 998.479 C 1635.77 1326.32 1383.28 1605.36 1055.44 1621.73 C 727.618 1638.1 448.591 1385.63 432.21 1057.8 C 415.828 729.981 668.295 450.946 996.116 434.553 z"/>
<path transform="translate(0,0)" fill="rgb(36,28,20)" d="M 1184.6 630.43 C 1256.84 624.532 1348.97 640.586 1413.68 672.621 C 1434.91 683.135 1451.4 693.37 1459.38 716.913 C 1464.14 730.616 1464.31 745.498 1459.85 759.306 C 1454.21 777.307 1442.58 786.577 1432.8 801.613 C 1408.75 838.571 1400.07 884.268 1388.69 926.174 C 1377.17 968.569 1363.6 1009.9 1344.12 1049.16 C 1303.76 1130.49 1237.72 1204.47 1149.17 1232.89 C 1082.03 1254.86 1015.99 1250.64 950.486 1225.14 C 938.704 1220.55 925.597 1213.62 914.223 1207.95 C 882.758 1258.18 857.025 1311.79 837.506 1367.76 C 830.319 1387.17 825.116 1407.58 819.233 1427.44 C 810.763 1456.04 785.793 1478.69 756.435 1484.62 C 735.599 1489.02 713.872 1484.87 696.123 1473.1 C 678.72 1461.32 668.361 1444.68 664.285 1424.12 C 659.775 1401.36 668.069 1376.18 674.31 1354.05 C 701.377 1258.07 746.209 1174.74 802.479 1092.96 C 755.91 983.559 774.229 864.302 854.072 775.243 C 938.651 680.902 1060.66 638.217 1184.6 630.43 z"/>
<path transform="translate(0,0)" fill="rgb(27,94,56)" d="M 1186.41 679.412 C 1186.71 679.378 1187.01 679.344 1187.32 679.31 C 1247.68 674.951 1308.26 683.77 1364.88 705.156 C 1379.85 710.657 1399.45 718.257 1411.39 728.867 C 1417.78 750.538 1406.23 752.389 1395.09 769.187 C 1386.08 782.951 1378.3 797.487 1371.86 812.626 C 1357.94 845.101 1348.31 884.838 1339.37 919.261 C 1310.81 1029.18 1247.03 1151.86 1131.1 1187.46 C 1067.1 1207.11 1002.37 1197.21 943.855 1166.56 C 980.977 1100.81 1069.42 1024.49 1132.01 982.717 C 1172.13 956.422 1226.97 942.678 1222.7 882.906 C 1221.22 861.966 1211.51 842.466 1195.68 828.673 C 1155.94 794.385 1115.89 819.353 1078.4 840.884 C 985.153 894.444 907.464 964.697 838.834 1046.93 C 833.692 1034.77 831.102 1020.38 828.893 1007.28 C 812.784 911.711 864.715 816.016 941.73 761.388 C 1013.38 710.567 1098.99 685.938 1186.41 679.412 z"/>
<path transform="translate(0,0)" fill="rgb(251,246,238)" d="M 1146.76 861.083 C 1170.57 861.076 1182.72 887.829 1166.73 905.15 C 1162.87 909.332 1143.49 919.09 1136.87 922.843 C 1124.75 929.673 1112.8 936.807 1101.04 944.24 C 1056.09 973.255 1014.64 1007.37 977.536 1045.92 C 899.272 1126.27 836.835 1228.72 796.93 1333.39 C 792.093 1346.07 787.553 1358.86 783.316 1371.75 C 779.347 1384.09 775.823 1397.11 772.116 1409.56 C 767.033 1426.62 760.844 1433.46 742.835 1436.38 C 737.789 1435.87 733.047 1435.11 728.389 1432.98 C 722.495 1430.3 718.252 1425.73 716.14 1419.6 C 706.066 1390.35 761.158 1263.64 776.529 1233.82 C 845.434 1100.18 939.474 991.493 1064.48 907.448 C 1087.01 892.302 1121.45 869.163 1146.76 861.083 z"/>
</svg>