<svg version="1.1" xmlns="http://www.w3.org/2000/svg" style="display: block;" viewBox="0 0 2048 2048" width="1024" height="1024" preserveAspectRatio="none">
<path transform="translate(0,0)" fill="rgb(36,28,20)" d="M 977.55 257.494 L 1322.55 257.837 L 1410.87 257.809 C 1440.97 257.655 1473.64 255.962 1502.94 262.252 C 1542.71 270.379 1579.24 289.937 1608.05 318.528 C 1653.74 363.574 1674.67 417.079 1673.14 480.488 C 1672.73 497.738 1673.15 515.755 1673.15 533.071 L 1673.21 665.817 L 1673.62 1190 L 1673.19 1455.7 L 1673.25 1537.93 C 1673.26 1568.71 1674.5 1594.93 1668.16 1625.08 C 1651.14 1705.96 1587.44 1768.95 1507.17 1787.33 C 1476.2 1794.42 1447.67 1793.16 1415.97 1793.17 L 1335.9 1793.09 L 1071.5 1793.27 L 735.686 1793.76 L 636.158 1794.11 C 612.928 1794.17 587.003 1795.18 564.045 1792.54 C 474.166 1782.19 391.92 1708.36 377.558 1618.08 C 374.163 1596.74 374.814 1577.13 374.777 1555.68 L 374.826 1480.9 L 374.23 1261.5 L 374.356 478.982 C 374.016 417.871 391.521 366.221 435.343 322.237 C 464.737 292.464 502.11 271.82 542.963 262.792 C 571.881 256.142 597.872 257.55 627.171 257.7 L 698.537 257.919 L 977.55 257.494 z"/>
<path transform="translate(0,0)" fill="rgb(122,63,6)" d="M 597.088 293.483 C 654.278 292.76 713.441 293.988 770.939 293.946 L 1209.46 293.909 L 1387.79 293.892 C 1416.21 293.837 1460.38 291.621 1486.83 295.669 C 1521.22 300.76 1553.33 315.943 1579.09 339.294 C 1649.82 404.285 1639.83 468.073 1639.77 554.696 L 1639.73 699.545 L 1639.82 1190.33 L 1639.93 1460.96 L 1639.93 1540.02 C 1639.93 1601.88 1637.51 1651.68 1591.73 1699.71 C 1551.38 1742.05 1508.78 1756.64 1451.25 1758.5 C 1389.1 1760.21 1320.93 1758.97 1258.5 1758.94 L 882.267 1758.76 L 680.111 1759.17 C 599.472 1759.18 527.997 1768.51 464.778 1707.29 C 428.533 1672.2 411.207 1629.33 410.359 1578.9 C 409.829 1547.35 409.963 1516.35 409.983 1485.05 L 410.389 1317.58 L 410.689 860.109 L 410.063 579.049 L 409.96 499.294 C 409.942 483.15 409.277 460.186 411.493 444.688 C 416.667 410.04 432.222 377.774 456.106 352.145 C 496.268 309.694 540.564 294.991 597.088 293.483 z"/>
<path transform="translate(0,0)" fill="rgb(36,28,20)" d="M 616.003 361.49 L 1215.75 361.59 L 1364.19 362.005 C 1394.33 361.858 1430.27 359.313 1459.38 363.259 C 1524.54 372.094 1573.42 431.366 1573.69 496.464 C 1573.8 522.334 1573.93 547.261 1573.92 572.668 L 1573.65 719.343 L 1573.54 1134.18 L 1573.9 1428.74 L 1573.87 1516.21 C 1573.86 1533.85 1574.57 1553.26 1572.57 1570.44 C 1566.24 1624.83 1528.73 1673.08 1474.6 1686.33 C 1460.7 1689.74 1450.42 1690.32 1436.25 1690.8 L 867.101 1689.91 L 689.18 1690.01 C 665.351 1690.08 610.588 1691.66 589.443 1688.4 C 562.536 1684.18 537.534 1671.92 517.718 1653.24 C 466.48 1604.91 474.04 1541.07 474.103 1477.41 L 474.04 1356.42 L 473.716 922.391 L 474.136 630.344 L 474.617 536.082 C 474.675 529.776 475.115 521.937 474.828 515.836 C 471.691 449.145 506.568 383.933 574.121 366.242 C 588.991 362.348 600.144 361.909 616.003 361.49 z"/>
<path transform="translate(0,0)" fill="rgb(251,246,238)" d="M 1232.51 397.5 C 1295.19 396.578 1358.21 398.229 1420.93 397.138 C 1457.9 396.495 1481.64 399.094 1509.14 425.96 C 1541.97 458.041 1537.73 491.378 1537.84 533.247 L 1538.05 1246.52 L 1538.01 1459.92 L 1538.08 1524 C 1538.12 1563.96 1539.24 1596.21 1508.21 1626.75 C 1475.1 1659.32 1437.18 1653.66 1394.78 1653.61 L 1272.51 1653.38 C 1120.84 1654.3 969.168 1654.26 817.5 1653.27 L 665.76 1653.73 C 642.167 1653.68 613.18 1655.32 590.568 1651.1 C 557.151 1645.11 524.119 1616 515.181 1582.95 C 506.837 1552.1 510.646 1506.84 510.859 1474.38 L 511.01 1346.09 L 510.991 847 L 510.995 604.627 L 510.885 530.799 C 510.87 519.37 510.699 507.93 510.99 496.466 C 511.684 469.137 522.974 444.706 541.451 424.859 C 573.826 390.085 616.918 398.074 660.046 397.918 C 716.652 397.713 773.258 397.875 829.862 398.403 C 964.078 399.221 1098.3 398.92 1232.51 397.5 z"/>
<path transform="translate(0,0)" fill="rgb(36,28,20)" d="M 989.094 449.397 C 1066.35 439.937 1151.83 496.674 1154.98 578.321 C 1156.29 607.601 1145.71 636.167 1125.66 657.544 C 1081.02 704.899 1024.37 699.373 979.468 656.142 C 967.02 703.607 979.699 746.128 993.159 791.453 C 1028.58 748.263 1055.67 723.631 1111.01 707.072 C 1192.18 682.785 1297.55 725.021 1318.88 812.649 C 1326.35 842.84 1321.33 874.767 1304.95 901.208 C 1320.48 900.398 1335.88 899.647 1351.45 901.204 C 1392.93 905.506 1429.09 927.762 1455.64 959.191 C 1499.15 1010.69 1504.13 1085.43 1448.22 1130.37 C 1427.01 1147.52 1399.79 1155.44 1372.69 1152.34 C 1337.01 1148.3 1314.15 1130.54 1293.04 1103.66 C 1283.37 1116.4 1280.28 1125.63 1275.7 1141 C 1276.42 1141.13 1277.15 1141.27 1277.87 1141.41 C 1307.12 1147.11 1359.54 1159.48 1360.52 1196.43 C 1361.23 1223.68 1362.91 1258.83 1358.8 1285.91 C 1355.31 1308.98 1339.51 1318.48 1321.31 1329.67 C 1314.43 1351.01 1308.02 1381.43 1302.78 1403.67 L 1280.53 1496.07 C 1276.96 1511.41 1269.92 1551.22 1260.85 1564.41 C 1258.05 1568.48 1234.79 1576.59 1228.22 1578.55 C 1152.16 1601.34 1063.87 1610.5 984.798 1605.16 C 925.63 1604.26 847.396 1591.96 793.011 1566.83 C 781.275 1561.41 779.183 1541.09 776.249 1529.07 C 771.499 1509.79 767.025 1490.44 762.828 1471.03 L 731.291 1331.71 C 685.641 1312.71 691.047 1282.46 691.557 1239.72 C 692.871 1224.19 688.031 1184.65 699.854 1173.28 C 718.089 1155.74 766.807 1147.04 790.556 1142.58 C 782.473 1119.36 778.877 1114.9 764.412 1095.37 C 754.921 1110.32 746.57 1122.91 732.67 1133.14 C 635.425 1204.66 525.688 1097.89 573.399 994.115 C 591.853 953.976 629.224 921.276 669.073 906.341 C 717.198 888.303 766.932 900.993 811.259 921.276 C 812.138 916.795 812.882 912.289 813.491 907.765 C 823.648 835.985 805.531 774.29 762.516 717.049 C 758.977 723.615 755.519 729.475 751.09 735.494 C 734.712 758.121 709.916 773.204 682.292 777.342 C 655.182 781.327 627.605 774.299 605.709 757.825 C 582.173 740.431 566.606 714.315 562.502 685.338 C 557.713 650.611 568.435 615.806 589.424 588.061 C 617.2 551.948 658.272 528.452 703.481 522.81 C 755.891 516.01 798.403 530.119 839.655 561.701 C 876.417 499.631 912.984 457.454 989.094 449.397 z"/>
<path transform="translate(0,0)" fill="rgb(122,63,6)" d="M 770.173 1340.79 C 897.225 1367.45 1044.8 1372.96 1174.23 1358.71 C 1195.34 1356.35 1216.36 1353.23 1237.24 1349.35 C 1251.45 1346.79 1269 1343.04 1283.13 1341.54 C 1269.9 1396.59 1256.19 1451.52 1241.99 1506.32 C 1239.34 1514.48 1236.06 1528.85 1233.78 1537.57 C 1231.64 1538.48 1229.49 1539.36 1227.32 1540.2 C 1123.12 1580.74 916.241 1582.06 813.743 1537.25 C 797.054 1474.65 785.28 1404.13 770.173 1340.79 z"/>
<path transform="translate(0,0)" fill="rgb(126,148,10)" d="M 1151.63 737.413 C 1191.41 734.026 1234.2 748.241 1259.59 780.032 C 1292.33 821.04 1292.25 883.48 1242.39 910.907 C 1204.13 931.952 1163.39 910.082 1150.41 870.571 C 1148.27 864.053 1148.96 856.648 1145.68 850.476 C 1138.24 848.013 1121.74 864.637 1116.89 869.938 C 1081.75 908.301 1077.97 963.885 1088.56 1012.51 C 1093.67 1035.94 1101.11 1057.14 1106.64 1079.8 C 1111.71 1100 1114.63 1120.68 1115.34 1141.49 C 1115.09 1161.35 1112.61 1175.84 1100.08 1192.16 C 1088.31 1207.58 1070.75 1217.52 1051.47 1219.68 C 1034.21 1221.84 1016.84 1216.76 1003.46 1205.66 C 973.772 1181.49 966.156 1121.8 962.172 1085.04 C 947.893 953.294 991.962 752.635 1151.63 737.413 z"/>
<path transform="translate(0,0)" fill="rgb(74,107,47)" d="M 712.673 560.412 C 748.106 555.76 802.507 575.994 830.62 597.417 C 845.174 608.508 859.364 617.598 872.316 631.52 C 909.022 670.975 934.883 719.595 948.815 771.521 C 955.783 797.493 958.76 817.862 963.328 843.621 C 954.303 866.049 945.637 887.632 939.761 911.191 C 930.38 948.807 927.684 986.959 923.711 1025.28 C 895.082 983.531 881.01 972.182 843.128 940.531 C 864.411 853.885 847.279 753.031 782.656 688.295 C 772.1 677.721 736.832 641.379 734.527 676.886 C 732.307 711.078 709.559 738.631 674.645 742.462 C 655.906 744.463 637.153 738.812 622.64 726.791 C 584.934 695.766 593.288 636.552 622.819 603.338 C 648.117 574.886 675.459 563.846 712.673 560.412 z"/>
<path transform="translate(0,0)" fill="rgb(74,107,47)" d="M 716.205 937.403 C 770.722 935.519 836.908 972.893 871.373 1013.6 C 911.938 1061.51 933.927 1123.95 939.467 1186.04 C 940.528 1197.93 939.328 1211.3 938.42 1223.25 C 908.694 1221.6 868.134 1215.49 838.952 1210.92 C 838.084 1182.94 836.014 1166.2 828.224 1139.49 C 814.809 1103.86 798.296 1078.1 768.006 1054.2 C 754.036 1043.18 733.037 1030.24 732.769 1059.06 C 732.246 1115.32 661.983 1136.8 622.663 1103 C 585.107 1070.71 591.918 1015.91 622.263 981.322 C 648.571 951.27 676.365 940.21 716.205 937.403 z"/>
<path transform="translate(0,0)" fill="rgb(74,107,47)" d="M 1318.15 939.4 C 1398.83 930.534 1490.56 1013.05 1433.59 1092.92 C 1426.94 1102.25 1417.88 1108.62 1407.07 1112.4 C 1389.45 1118.63 1370.05 1117.47 1353.29 1109.19 C 1328.07 1096.58 1319.82 1077.01 1313.6 1051.57 C 1313.01 1049.12 1311.77 1046.2 1309.04 1045.51 C 1298.91 1042.94 1289.93 1054.58 1283.04 1060.31 C 1260.44 1080.95 1246.48 1106.05 1236.37 1134.65 C 1227.81 1161.95 1225.8 1181.55 1225.99 1209.57 C 1192.76 1215.62 1156.26 1221.61 1122.39 1222.22 C 1152.59 1183.19 1153.92 1147.79 1147.44 1100.5 C 1144.16 1076.54 1176.23 1031.34 1191.41 1012.26 C 1222.84 972.769 1266.85 944.328 1318.15 939.4 z"/>
<path transform="translate(0,0)" fill="rgb(122,63,6)" d="M 725.542 1220.64 C 774.454 1239.43 843.757 1249.83 895.38 1254.7 C 937.153 1259.03 979.1 1261.48 1021.09 1262.02 C 1120.39 1262.68 1232.97 1249.12 1327.77 1220.79 C 1327.94 1237.8 1329.73 1272.2 1322.33 1286.04 C 1321.49 1286.98 1320.64 1287.9 1319.76 1288.8 C 1308.55 1300.24 1278.19 1305.71 1262.13 1309.05 C 1194.54 1323.12 1125.76 1330.68 1056.73 1331.64 C 1021.1 1332.2 985.455 1331.58 949.865 1329.77 C 913.365 1327.64 752.006 1312.56 730.693 1290.31 C 722.334 1281.58 725.108 1234.03 725.542 1220.64 z"/>
<path transform="translate(0,0)" fill="rgb(251,246,238)" d="M 1130.21 914.578 C 1150.85 937.793 1161.02 949.785 1192.72 956.119 C 1176.44 970.839 1165.2 985.185 1152.17 1002.46 C 1144.63 1012.4 1137.71 1023.17 1130.88 1033.63 C 1120.96 996.129 1116.15 951.419 1130.21 914.578 z"/>
<path transform="translate(0,0)" fill="rgb(122,63,6)" d="M 791.67 1178.34 C 794.759 1177.66 797.548 1176.7 797.983 1180.38 C 798.946 1188.55 799.823 1196.49 800.307 1204.7 L 789.471 1202.27 C 781.829 1200.52 774.312 1198.26 766.779 1196.07 C 759.312 1193.81 752.702 1191.45 745.645 1188.03 C 753.967 1186.06 762.161 1184.01 770.51 1182.11 L 777.486 1180.76 C 782.34 1179.82 786.757 1179.05 791.67 1178.34 z"/>
<path transform="translate(0,0)" fill="rgb(122,63,6)" d="M 1267.26 1176.59 C 1281.96 1180.99 1288.36 1183.37 1302.37 1189.5 C 1298.95 1191.05 1295.14 1192.76 1291.77 1194.4 C 1291.24 1194.57 1290.72 1194.74 1290.19 1194.91 C 1284.4 1196.92 1278.49 1198.57 1272.49 1199.86 C 1269.75 1200.43 1267.35 1201.07 1264.65 1201.7 C 1265.5 1193.43 1266.63 1184.86 1267.26 1176.59 z"/>
<path transform="translate(0,0)" fill="rgb(122,63,6)" d="M 971.074 1222.11 C 971.356 1222.07 971.637 1222.03 971.918 1221.99 C 971.922 1222.24 971.926 1222.49 971.93 1222.74 C 971.294 1223.11 971.54 1223.01 971.151 1223.12 L 971.067 1223.05 C 971.002 1222.68 971.023 1222.95 971.074 1222.11 z"/>
<path transform="translate(0,0)" fill="rgb(36,28,20)" d="M 1350.6 449.407 C 1365.8 437.17 1384.74 430.511 1404.26 430.541 C 1428.47 430.418 1450.13 440.171 1467.24 457.151 C 1484.54 474.065 1494.21 497.288 1494.03 521.479 C 1493.95 565.126 1467.19 589.103 1438.53 617.108 C 1425.1 630.262 1411.76 643.502 1398.5 656.826 C 1385.74 669.379 1357.03 706.1 1339.72 689.886 C 1317.27 668.858 1293.66 647.229 1272.39 624.914 C 1258.63 610.47 1234.33 591.059 1223.21 575.654 C 1214.62 563.783 1208.93 550.066 1206.6 535.602 C 1198.09 483.639 1231.81 439.029 1283.66 431.322 C 1311.32 429.238 1327.43 433.623 1350.6 449.407 z"/>
<path transform="translate(0,0)" fill="rgb(166,96,11)" d="M 1356 490.906 C 1372.13 482.309 1375.74 467.498 1402.48 466.786 C 1417.56 466.422 1432.16 472.094 1443.03 482.542 C 1453.12 492.391 1458.87 505.854 1459.01 519.954 C 1459.12 529.294 1456.85 538.509 1452.39 546.72 C 1444.46 561.068 1408.29 595.511 1394.37 609.314 C 1379.91 623.356 1365.62 637.578 1351.52 651.979 C 1339.16 641.216 1327.61 628.915 1315.48 617.783 C 1301.79 604.739 1287.79 591.784 1274.64 578.182 C 1261.56 564.638 1245.61 552.083 1241.9 532.639 C 1235.6 499.595 1256.76 473.558 1288.36 467.202 C 1319.21 464.929 1321.2 480.542 1344.82 490.609 C 1346.38 491.275 1353.8 490.981 1356 490.906 z"/>
</svg>